<?xml version="1.0" encoding="utf-8"?>
<!-- Generator: Adobe Illustrator 15.0.0, SVG Export Plug-In . SVG Version: 6.00 Build 0)  -->
<!DOCTYPE svg PUBLIC "-//W3C//DTD SVG 1.1//EN" "http://www.w3.org/Graphics/SVG/1.1/DTD/svg11.dtd">
<svg version="1.1" id="Layer_1" xmlns="http://www.w3.org/2000/svg" xmlns:xlink="http://www.w3.org/1999/xlink" x="0px" y="0px"
	 width="123.419px" height="23.117px" viewBox="0 0 123.419 23.117" enable-background="new 0 0 123.419 23.117"
	 xml:space="preserve">
<g>
	<path class='c' fill="#FFFFFF" d="M10.982,0.793c3.906,0,6.728,2.015,8.062,4.806l-0.931,0.434c-1.612-3.131-4.558-4.217-7.255-4.217
		c-5.892,0-9.209,5.147-9.209,10.046c0,5.396,4.093,10.232,9.302,10.232c2.791,0,6.046-1.363,7.658-4.465l0.931,0.373
		c-1.488,3.316-5.333,5.115-8.713,5.115c-5.984,0-10.232-5.768-10.232-11.348C0.595,6.498,4.378,0.793,10.982,0.793z"/>
	<path class='a' fill="#FFFFFF" d="M21.024,22.932l9.487-22.015h0.899l9.488,22.015h-1.178l-3.256-7.598L30.977,2.281l-8.806,20.65H21.024z
		 M36.124,14.405L30.977,2.281"/>
	<path class='n' fill="#FFFFFF" d="M45.607,2.963v19.968h-1.054V0.917h0.806l16.186,20.31V0.948h1.054v21.984h-1.054L45.607,2.963z"/>
	<path class='v' fill="#FFFFFF" d="M67.307,0.917l8.868,20.681L84.98,0.917h1.147l-9.457,22.015h-1.023L66.191,0.917H67.307z"/>
	<path class='a' fill="#FFFFFF" d="M85.597,22.932l9.487-22.015h0.899l9.487,22.015h-1.178l-3.256-7.598L95.549,2.281l-8.805,20.65H85.597z
		 M100.696,14.405L95.549,2.281"/>
	<path class='s' fill="#FFFFFF" d="M121.559,4.172c-1.581-1.767-3.441-2.418-6.046-2.418c-4.713,0-6.697,1.922-6.697,4.898
		c0,3.008,2.016,3.814,6.729,4.775c4.806,0.992,7.875,2.108,7.875,6.015c0,3.689-3.069,5.643-7.813,5.643
		c-3.504,0-6.263-1.085-8.619-3.348l0.62-0.775c2.046,2.107,4.682,3.193,8.03,3.193c4.124,0,6.666-1.52,6.666-4.59
		c0-3.131-2.264-4.185-7.131-5.177c-4.807-0.961-7.441-1.953-7.441-5.581c0-3.907,3.069-6.046,7.751-6.046
		c2.821,0,4.899,0.806,6.667,2.604L121.559,4.172z"/>
</g>
</svg>
